<?xml version="1.0" standalone="no"?>
<!DOCTYPE svg PUBLIC "-//W3C//DTD SVG 20010904//EN"
 "http://www.w3.org/TR/2001/REC-SVG-20010904/DTD/svg10.dtd">
<svg version="1.0" xmlns="http://www.w3.org/2000/svg"
 width="1024.000000pt" height="1024.000000pt" viewBox="0 0 1024.000000 1024.000000"
 preserveAspectRatio="xMidYMid meet">
<metadata>
Created by potrace 1.16, written by Peter Selinger 2001-2019
</metadata>
<g transform="translate(0.000000,1024.000000) scale(0.100000,-0.100000)"
fill="#ffffff" stroke="none">
<path d="M0 5120 l0 -5120 5120 0 5120 0 0 5120 0 5120 -5120 0 -5120 0 0
-5120z m6318 1578 c7 -7 12 -19 12 -28 0 -8 -41 -87 -91 -175 -50 -88 -140
-249 -201 -357 l-110 -198 -343 0 -342 0 165 164 165 164 106 -5 c96 -5 108
-4 131 14 33 28 34 88 1 114 -22 18 -47 19 -396 19 l-373 0 -26 -31 c-31 -36
-33 -59 -7 -90 18 -23 26 -24 179 -29 l160 -5 -184 -187 -183 -187 -59 72
c-32 40 -156 199 -276 355 l-218 282 58 60 57 60 882 0 c672 0 884 -3 893 -12z
m-1766 -510 c124 -161 266 -342 317 -403 l91 -110 0 -521 0 -521 -29 -39 c-17
-21 -113 -146 -214 -277 -101 -131 -233 -306 -293 -387 -60 -82 -112 -149
-115 -150 -4 0 -117 119 -253 265 l-246 265 0 360 c0 199 4 359 8 356 5 -3 33
-44 62 -91 72 -118 418 -617 438 -632 23 -18 66 -16 91 5 20 17 21 20 23 820
l3 804 -24 19 c-31 25 -69 24 -98 -3 l-23 -21 -1 -566 c-1 -311 -4 -606 -8
-655 l-6 -88 -86 123 c-48 68 -119 173 -158 232 l-72 108 2 222 2 222 -77 127
-76 128 0 78 0 78 191 205 c106 112 219 234 253 272 33 37 63 67 67 67 3 0
108 -132 231 -292z m770 -751 l227 -93 3 -208 3 -208 -237 -103 c-131 -57
-238 -99 -238 -94 0 10 82 161 138 253 31 53 36 70 40 141 l4 81 -74 130 c-93
160 -111 194 -101 194 5 0 110 -42 235 -93z m558 -227 c85 -34 158 -65 162
-69 7 -6 -315 -151 -335 -151 -4 0 -7 66 -7 146 0 113 3 145 13 141 6 -3 82
-33 167 -67z m-761 -1032 l171 -193 -150 -3 c-147 -2 -149 -3 -169 -29 -27
-33 -27 -77 -1 -103 19 -19 33 -20 395 -20 l376 0 24 25 c30 30 32 64 4 99
-20 26 -22 26 -152 26 l-132 1 -140 155 c-77 85 -141 158 -143 162 -1 4 158 5
353 2 l354 -5 116 -190 c154 -249 300 -496 308 -518 18 -49 61 -47 -903 -47
l-898 0 -56 64 c-31 35 -56 66 -56 69 0 3 42 62 93 130 50 69 166 224 256 346
91 121 168 221 172 221 4 0 84 -87 178 -192z"/>
</g>
</svg>
