<svg xmlns="http://www.w3.org/2000/svg" viewBox="0 0 1024 1024">
<g transform="translate(0,1024) scale(0.1,-0.1)" fill="#ffffff">
<path d="M4925 6740 c-311 -5 -364 -8 -391 -23 -42 -22 -110 -100 -134 -154 -15 -34 -28 -47 -62 -62 -45 -19 -74 -47 -249 -241 -57 -63 -142 -155 -189 -203 -109 -113 -114 -122 -108 -213 5 -67 10 -81 60 -166 99 -166 92 -135 89 -387 -2 -210 -1 -224 17 -245 36 -38 82 -135 82 -171 0 -30 -3 -35 -24 -35 -25 0 -88 62 -143 143 -41 59 -69 63 -79 11 -3 -19 -7 -173 -8 -342 -1 -345 0 -351 67 -422 23 -25 88 -97 144 -160 123 -140 307 -319 349 -341 21 -11 34 -27 39 -47 10 -46 127 -158 173 -166 50 -8 1183 -8 1507 1 241 6 258 8 276 27 11 11 19 27 19 35 0 20 -35 84 -126 237 -39 66 -115 196 -169 289 -54 94 -108 184 -121 202 -34 45 -88 60 -268 73 -167 11 -188 17 -221 59 -16 20 -19 37 -17 81 2 30 10 62 18 71 7 8 44 31 80 50 77 40 117 83 140 154 9 27 35 76 56 107 42 60 107 102 230 148 53 20 108 66 108 92 0 17 -56 62 -111 89 -245 119 -249 122 -277 165 -26 42 -119 104 -154 104 -8 0 -23 9 -33 20 -10 11 -26 20 -36 20 -20 0 -112 118 -148 188 -28 56 -27 103 3 131 35 33 145 44 352 37 265 -10 268 -9 376 189 33 61 101 180 151 265 163 277 181 325 137 365 -37 33 -401 40 -1405 25z m-570 -1441 c8 -48 -3 -152 -15 -144 -23 14 -23 185 0 185 4 0 11 -18 15 -41z"/>
</g>
</svg>
