<?xml version="1.0" standalone="no"?>
<!DOCTYPE svg PUBLIC "-//W3C//DTD SVG 20010904//EN"
 "http://www.w3.org/TR/2001/REC-SVG-20010904/DTD/svg10.dtd">
<svg version="1.0" xmlns="http://www.w3.org/2000/svg"
 width="1024.000000pt" height="1024.000000pt" viewBox="0 0 1024.000000 1024.000000"
 preserveAspectRatio="xMidYMid meet">
<metadata>
Created by potrace 1.16, written by Peter Selinger 2001-2019
</metadata>
<g transform="translate(0.000000,1024.000000) scale(0.100000,-0.100000)"
fill="#000000" stroke="none">
<path d="M4925 6740 c-311 -5 -364 -8 -391 -23 -42 -22 -110 -100 -134 -154
-15 -34 -28 -47 -62 -62 -45 -19 -74 -47 -249 -241 -57 -63 -142 -155 -189
-203 -139 -144 -148 -210 -48 -379 99 -166 92 -135 89 -387 -2 -210 -1 -224
17 -245 36 -38 82 -135 82 -171 0 -74 -76 -25 -167 108 -76 111 -85 77 -87
-331 -1 -345 0 -351 67 -422 23 -25 88 -97 144 -160 123 -140 307 -319 349
-341 21 -11 34 -27 39 -47 10 -46 127 -158 173 -166 50 -8 1183 -8 1507 1 360
9 351 -6 169 299 -39 66 -115 196 -169 289 -155 268 -138 257 -389 275 -211
15 -244 34 -238 140 5 66 13 76 98 121 77 40 117 83 140 154 41 123 118 192
286 255 135 50 134 114 -3 181 -245 119 -249 122 -277 165 -26 42 -119 104
-154 104 -8 0 -23 9 -33 20 -10 11 -26 20 -36 20 -11 0 -40 29 -73 74 -180
243 -126 297 280 282 265 -10 268 -9 376 189 33 61 101 180 151 265 163 277
181 325 137 365 -37 33 -401 40 -1405 25z m-570 -1441 c8 -48 -3 -152 -15
-144 -23 14 -23 185 0 185 4 0 11 -18 15 -41z"/>
</g>
</svg>
